<svg width="50" height="51" viewBox="0 0 50 51" fill="none" xmlns="http://www.w3.org/2000/svg">
<rect x="0.25" y="0.798218" width="49.5" height="49.5" rx="24.75" stroke="black" stroke-width="0.5"/>
<path d="M13.3594 33.5482V32.9525C15.5729 30.4981 17.1354 28.558 18.0469 27.1322C18.9583 25.6999 19.4141 24.5118 19.4141 23.5677C19.4141 22.7539 19.196 22.0899 18.7598 21.5756C18.3236 21.0612 17.7702 20.8041 17.0996 20.8041C16.6374 20.8041 16.2012 20.9082 15.791 21.1166C15.3809 21.3184 14.9089 21.6765 14.375 22.1908L13.9355 21.8295C14.6257 21.0092 15.2767 20.4167 15.8887 20.0521C16.5007 19.6875 17.1354 19.5052 17.793 19.5052C18.724 19.5052 19.4954 19.821 20.1074 20.4525C20.7259 21.084 21.0352 21.875 21.0352 22.8256C21.0352 23.8412 20.5729 25.0521 19.6484 26.4584C18.724 27.8646 17.1387 29.7331 14.8926 32.0638H18.9551C19.5931 32.0638 20.0618 31.9727 20.3613 31.7904C20.6608 31.6016 20.9408 31.2403 21.2012 30.7064L21.6406 30.8529L20.5371 33.5482H13.3594ZM22.7734 33.5482V32.9525C23.431 32.9265 23.9876 32.7735 24.4434 32.4935C24.8991 32.2136 25.4167 31.6569 25.9961 30.8236L28.916 26.6244L25.3125 21.6439C25.1172 21.3705 24.9186 21.1329 24.7168 20.931C24.5215 20.7227 24.3294 20.5567 24.1406 20.433C23.9323 20.2898 23.7109 20.1823 23.4766 20.1107C23.2487 20.0391 23.0013 19.9968 22.7344 19.9838V19.3881H28.4766V19.9838C28.0599 19.9838 27.7376 20.0489 27.5098 20.1791C27.2884 20.3093 27.1777 20.4916 27.1777 20.726C27.1777 20.8431 27.2103 20.9733 27.2754 21.1166C27.347 21.2598 27.487 21.4779 27.6953 21.7709L30.0781 25.0521L31.9141 22.3861C32.1484 22.0606 32.3242 21.7676 32.4414 21.5072C32.5586 21.2403 32.6172 21.0124 32.6172 20.8236C32.6172 20.5502 32.5163 20.3483 32.3145 20.2181C32.1126 20.0879 31.7806 20.0098 31.3184 19.9838V19.3881H36.1133V19.9838C35.4492 20.0879 34.8307 20.3549 34.2578 20.7845C33.6849 21.2142 33.0566 21.9076 32.373 22.8646L30.459 25.5697L33.5156 29.8275C34.5052 31.2012 35.2279 32.0671 35.6836 32.4252C36.1393 32.7767 36.6178 32.9525 37.1191 32.9525H37.1777V33.5482H31.0742V32.9525C31.7122 32.9265 32.1484 32.8549 32.3828 32.7377C32.6172 32.614 32.7344 32.4122 32.7344 32.1322C32.7344 32.0736 32.7148 32.002 32.6758 31.9174C32.6432 31.8327 32.5977 31.7416 32.5391 31.6439L29.3164 27.1908L26.377 31.4095C26.2923 31.5332 26.2305 31.6472 26.1914 31.7513C26.1523 31.8555 26.1328 31.9532 26.1328 32.0443C26.1328 32.3308 26.2826 32.5489 26.582 32.6986C26.888 32.8418 27.3535 32.9265 27.9785 32.9525V33.5482H22.7734Z" fill="#FF9662"/>
</svg>
