<svg width="50" height="50" viewBox="0 0 50 50" fill="none" xmlns="http://www.w3.org/2000/svg">
<rect x="0.25" y="0.25" width="49.5" height="49.5" rx="24.75" stroke="black" stroke-width="0.5"/>
<path d="M14.9805 26.3594V25.7246C16.2435 25.4707 17.2201 25.054 17.9102 24.4746C18.6068 23.8952 18.9551 23.2051 18.9551 22.4043C18.9551 21.7467 18.7467 21.1934 18.3301 20.7441C17.9134 20.2884 17.4023 20.0605 16.7969 20.0605C16.3932 20.0605 16.0059 20.181 15.6348 20.4219C15.2637 20.6562 14.8926 21.0208 14.5215 21.5156L14.0527 21.2617C14.4564 20.526 14.9544 19.9629 15.5469 19.5723C16.1458 19.1751 16.8034 18.9766 17.5195 18.9766C18.3724 18.9766 19.1048 19.2598 19.7168 19.8262C20.3288 20.3926 20.6348 21.0632 20.6348 21.8379C20.6348 22.528 20.4167 23.1432 19.9805 23.6836C19.5508 24.2174 18.8965 24.6829 18.0176 25.0801C19.0592 25.2559 19.86 25.6367 20.4199 26.2227C20.9798 26.8086 21.2598 27.554 21.2598 28.459C21.2598 29.8327 20.7292 30.9753 19.668 31.8867C18.6133 32.7917 17.2689 33.2441 15.6348 33.2441C15.0163 33.2441 14.5443 33.1628 14.2188 33C13.8997 32.8307 13.7402 32.5898 13.7402 32.2773C13.7402 32.0755 13.8216 31.916 13.9844 31.7988C14.1471 31.6816 14.3717 31.623 14.6582 31.623C14.9837 31.623 15.4492 31.7077 16.0547 31.877C16.6602 32.0397 17.1224 32.1211 17.4414 32.1211C18.2161 32.1211 18.8249 31.8802 19.2676 31.3984C19.7168 30.9102 19.9414 30.2363 19.9414 29.377C19.9414 28.459 19.5638 27.7201 18.8086 27.1602C18.0534 26.6003 17.0443 26.3203 15.7812 26.3203C15.6185 26.3203 15.3678 26.3333 15.0293 26.3594H14.9805ZM22.7734 33V32.4043C23.431 32.3783 23.9876 32.2253 24.4434 31.9453C24.8991 31.6654 25.4167 31.1087 25.9961 30.2754L28.916 26.0762L25.3125 21.0957C25.1172 20.8223 24.9186 20.5846 24.7168 20.3828C24.5215 20.1745 24.3294 20.0085 24.1406 19.8848C23.9323 19.7415 23.7109 19.6341 23.4766 19.5625C23.2487 19.4909 23.0013 19.4486 22.7344 19.4355V18.8398H28.4766V19.4355C28.0599 19.4355 27.7376 19.5007 27.5098 19.6309C27.2884 19.7611 27.1777 19.9434 27.1777 20.1777C27.1777 20.2949 27.2103 20.4251 27.2754 20.5684C27.347 20.7116 27.487 20.9297 27.6953 21.2227L30.0781 24.5039L31.9141 21.8379C32.1484 21.5124 32.3242 21.2194 32.4414 20.959C32.5586 20.6921 32.6172 20.4642 32.6172 20.2754C32.6172 20.002 32.5163 19.8001 32.3145 19.6699C32.1126 19.5397 31.7806 19.4616 31.3184 19.4355V18.8398H36.1133V19.4355C35.4492 19.5397 34.8307 19.8066 34.2578 20.2363C33.6849 20.666 33.0566 21.3594 32.373 22.3164L30.459 25.0215L33.5156 29.2793C34.5052 30.653 35.2279 31.5189 35.6836 31.877C36.1393 32.2285 36.6178 32.4043 37.1191 32.4043H37.1777V33H31.0742V32.4043C31.7122 32.3783 32.1484 32.3066 32.3828 32.1895C32.6172 32.0658 32.7344 31.8639 32.7344 31.584C32.7344 31.5254 32.7148 31.4538 32.6758 31.3691C32.6432 31.2845 32.5977 31.1934 32.5391 31.0957L29.3164 26.6426L26.377 30.8613C26.2923 30.985 26.2305 31.099 26.1914 31.2031C26.1523 31.3073 26.1328 31.4049 26.1328 31.4961C26.1328 31.7826 26.2826 32.0007 26.582 32.1504C26.888 32.2936 27.3535 32.3783 27.9785 32.4043V33H22.7734Z" fill="#FF9662"/>
</svg>
